<mxfile host="65bd71144e">
    <diagram id="2p1rm2pP9Gxse_1pK7at" name="Page-1">
        <mxGraphModel dx="912" dy="1266" grid="1" gridSize="10" guides="1" tooltips="1" connect="1" arrows="1" fold="1" page="1" pageScale="1" pageWidth="850" pageHeight="1100" math="0" shadow="0">
            <root>
                <mxCell id="0"/>
                <mxCell id="1" parent="0"/>
                <mxCell id="6" value="" style="rounded=0;whiteSpace=wrap;html=1;gradientColor=#b3b3b3;fillColor=#f5f5f5;strokeColor=#666666;shadow=1;" vertex="1" parent="1">
                    <mxGeometry x="630" y="10" width="30" height="460" as="geometry"/>
                </mxCell>
                <mxCell id="2" value="" style="rounded=0;whiteSpace=wrap;html=1;shadow=1;" vertex="1" parent="1">
                    <mxGeometry x="10" y="10" width="620" height="460" as="geometry"/>
                </mxCell>
                <mxCell id="3" value="" style="rounded=0;whiteSpace=wrap;html=1;fillColor=#e51400;strokeColor=#B20000;fontColor=#ffffff;shadow=0;" vertex="1" parent="1">
                    <mxGeometry x="630" y="10" width="30" height="30" as="geometry"/>
                </mxCell>
                <mxCell id="4" value="" style="rounded=0;whiteSpace=wrap;html=1;fillColor=#008a00;strokeColor=#005700;fontColor=#ffffff;shadow=0;" vertex="1" parent="1">
                    <mxGeometry x="630" y="70" width="30" height="30" as="geometry"/>
                </mxCell>
                <mxCell id="5" value="" style="rounded=0;whiteSpace=wrap;html=1;fillColor=#fa6800;strokeColor=#C73500;fontColor=#000000;shadow=0;" vertex="1" parent="1">
                    <mxGeometry x="630" y="40" width="30" height="30" as="geometry"/>
                </mxCell>
                <mxCell id="7" value="" style="rounded=0;whiteSpace=wrap;html=1;shadow=1;fillColor=#4D4D4D;" vertex="1" parent="1">
                    <mxGeometry x="330" y="30" width="290" height="420" as="geometry"/>
                </mxCell>
                <mxCell id="9" value="" style="rounded=0;whiteSpace=wrap;html=1;shadow=1;fillColor=#4D4D4D;" vertex="1" parent="1">
                    <mxGeometry x="40" y="30" width="290" height="420" as="geometry"/>
                </mxCell>
                <mxCell id="10" value="" style="rounded=0;whiteSpace=wrap;html=1;shadow=1;fillColor=#6E6E6E;" vertex="1" parent="1">
                    <mxGeometry x="375" y="70" width="200" height="190" as="geometry"/>
                </mxCell>
                <mxCell id="11" value="" style="rounded=0;whiteSpace=wrap;html=1;shadow=1;fillColor=#6E6E6E;" vertex="1" parent="1">
                    <mxGeometry x="375" y="360" width="200" height="50" as="geometry"/>
                </mxCell>
                <mxCell id="13" value="" style="rounded=0;whiteSpace=wrap;html=1;shadow=1;fillColor=#6E6E6E;" vertex="1" parent="1">
                    <mxGeometry x="70" y="186.25" width="200" height="100" as="geometry"/>
                </mxCell>
                <mxCell id="14" value="" style="rounded=0;whiteSpace=wrap;html=1;shadow=1;fillColor=#6E6E6E;" vertex="1" parent="1">
                    <mxGeometry x="70" y="298.75" width="200" height="105" as="geometry"/>
                </mxCell>
                <mxCell id="15" value="" style="rounded=0;whiteSpace=wrap;html=1;shadow=1;fillColor=#6E6E6E;" vertex="1" parent="1">
                    <mxGeometry x="70" y="76.25" width="200" height="100" as="geometry"/>
                </mxCell>
            </root>
        </mxGraphModel>
    </diagram>
</mxfile>